{"glyphs":{"0":{"ha":725,"x_min":92,"x_max":633,"o":"m 92 264 l 92 725 q 169 921 92 846 q 362 997 245 997 q 556 921 479 997 q 633 725 633 846 l 633 264 q 556 67 633 143 q 362 -8 479 -8 q 169 67 245 -8 q 92 264 92 143 m 192 269 q 237 133 192 186 q 362 81 282 81 q 488 133 443 81 q 533 269 533 186 l 533 720 q 488 856 533 803 q 362 908 443 908 q 237 856 282 908 q 192 720 192 803 l 192 269 z "},"1":{"ha":725,"x_min":174,"x_max":458,"o":"m 174 715 l 174 829 l 358 989 l 458 989 l 458 0 l 358 0 l 358 878 l 174 715 z "},"2":{"ha":725,"x_min":94,"x_max":640,"o":"m 94 0 l 94 89 l 485 585 q 541 730 541 656 q 495 860 541 811 q 368 908 449 908 q 244 864 293 908 q 196 729 196 819 l 96 729 q 171 922 96 847 q 368 997 245 997 q 565 924 490 997 q 640 730 640 851 q 622 629 640 673 q 561 530 604 585 l 215 89 l 640 89 l 640 0 l 94 0 z "},"3":{"ha":725,"x_min":58,"x_max":639,"o":"m 58 252 l 158 252 q 217 122 163 164 q 349 79 271 79 q 485 131 431 79 q 539 271 539 182 q 345 463 539 463 l 323 463 l 323 550 l 345 550 q 477 596 433 550 q 521 729 521 643 q 472 862 521 815 q 349 909 424 909 q 224 865 271 909 q 171 745 178 821 l 71 745 q 156 931 79 863 q 349 999 233 999 q 545 925 469 999 q 621 730 621 851 q 488 511 621 572 q 639 269 639 454 q 557 64 639 137 q 349 -9 475 -9 q 144 56 225 -9 q 58 252 64 122 z "},"4":{"ha":725,"x_min":56,"x_max":669,"o":"m 56 157 l 56 248 l 412 989 l 519 989 l 163 248 l 450 248 l 450 528 l 549 528 l 549 248 l 669 248 l 669 157 l 549 157 l 549 0 l 450 0 l 450 157 l 56 157 z "},"5":{"ha":725,"x_min":97,"x_max":642,"o":"m 97 233 l 197 233 q 366 79 217 79 q 488 125 442 79 q 542 326 542 179 q 535 416 542 378 q 512 491 529 454 q 461 547 496 528 q 375 567 427 567 q 269 541 311 567 q 211 469 227 514 l 121 469 l 121 989 l 621 989 l 621 900 l 211 900 l 211 586 q 389 654 272 654 q 559 591 497 654 q 642 326 642 509 q 626 175 642 237 q 562 64 611 113 q 366 -9 488 -10 q 167 61 238 -9 q 97 233 106 123 z "},"6":{"ha":725,"x_min":90,"x_max":639,"o":"m 90 277 q 153 498 90 374 l 396 989 l 498 989 l 278 545 q 382 566 324 566 q 568 487 497 566 q 639 285 639 408 q 564 75 639 157 q 366 -8 489 -8 q 165 70 241 -8 q 90 277 90 147 m 191 281 q 238 136 191 191 q 364 81 285 81 q 491 136 443 81 q 539 281 539 191 q 492 424 539 367 q 364 481 446 481 q 238 427 285 481 q 191 281 191 372 z "},"7":{"ha":725,"x_min":106,"x_max":654,"o":"m 106 745 l 106 989 l 654 989 l 654 900 l 311 0 l 205 0 l 549 900 l 204 900 l 204 745 l 106 745 z "},"8":{"ha":725,"x_min":71,"x_max":654,"o":"m 71 272 q 220 513 71 427 q 90 732 91 587 q 167 922 90 847 q 362 997 244 997 q 558 922 481 997 q 635 732 635 847 q 507 513 635 586 q 654 272 654 429 q 571 70 654 149 q 362 -8 488 -8 q 154 70 237 -8 q 71 272 71 149 m 226 411 q 198 383 226 411 q 171 274 171 355 q 226 136 171 192 q 362 81 281 81 q 499 136 444 81 q 554 274 554 192 q 499 411 554 355 q 362 467 444 467 q 226 411 281 467 m 238 858 q 214 833 238 858 q 191 731 191 808 q 238 604 191 653 q 362 554 286 554 q 487 604 439 554 q 534 731 534 653 q 487 858 534 808 q 362 908 439 908 q 238 858 286 908 z "},"9":{"ha":725,"x_min":86,"x_max":635,"o":"m 86 704 q 161 914 86 831 q 359 997 236 997 q 559 919 484 997 q 635 713 635 842 q 572 490 635 616 l 329 0 l 225 0 l 447 444 q 342 424 401 423 q 157 502 228 424 q 86 704 86 581 m 186 708 q 232 565 186 622 q 359 509 278 509 q 487 563 439 509 q 534 708 534 616 q 487 853 534 798 q 360 908 439 908 q 233 853 281 908 q 186 708 186 799 z "},"\u0000":{"ha":0,"x_min":0,"x_max":0,"o":""},"\r":{"ha":462,"x_min":0,"x_max":0,"o":""}," ":{"ha":345,"x_min":0,"x_max":0,"o":""},"!":{"ha":439,"x_min":180,"x_max":300,"o":"m 180 0 l 180 117 l 300 117 l 300 0 l 180 0 m 183 989 l 298 989 l 283 278 l 197 278 l 183 989 z "},"\"":{"ha":587,"x_min":122,"x_max":465,"o":"m 122 753 l 122 989 l 232 989 l 232 753 l 122 753 m 355 753 l 355 989 l 465 989 l 465 753 l 355 753 z "},"#":{"ha":907,"x_min":107,"x_max":836,"o":"m 107 315 l 107 404 l 245 404 l 278 600 l 150 600 l 150 692 l 290 692 l 338 990 l 441 990 l 393 692 l 614 692 l 661 990 l 762 990 l 715 692 l 836 692 l 836 600 l 703 600 l 671 404 l 794 404 l 794 315 l 657 315 l 607 0 l 504 0 l 554 315 l 332 315 l 283 0 l 180 0 l 231 315 l 107 315 m 347 404 l 568 404 l 600 600 l 379 600 l 347 404 z "},"$":{"ha":827,"x_min":58,"x_max":750,"o":"m 58 122 l 131 195 q 370 87 233 93 l 370 456 l 342 458 q 161 533 237 468 q 85 718 85 601 q 160 911 85 836 q 364 996 235 986 l 364 1120 l 447 1120 l 447 996 q 705 889 594 989 l 637 821 q 443 904 553 897 l 443 545 l 486 538 q 665 468 608 517 q 750 272 750 395 q 668 78 750 153 q 447 -5 586 4 l 447 -158 l 364 -158 l 364 -8 q 195 26 267 -4 q 58 122 123 57 m 189 722 q 233 608 189 647 q 370 554 283 566 l 370 904 q 236 849 283 897 q 189 722 189 800 m 443 87 q 591 142 537 94 q 644 269 644 190 q 596 393 644 351 q 577 408 587 401 q 555 419 568 414 q 535 428 542 425 q 512 433 529 431 q 492 437 496 436 q 467 441 488 439 q 443 444 446 444 l 443 87 z "},"%":{"ha":1156,"x_min":90,"x_max":1068,"o":"m 90 665 l 90 811 q 143 947 90 896 q 278 999 196 999 q 412 947 359 999 q 465 811 465 896 l 465 665 q 412 531 465 582 q 278 479 359 479 q 143 531 196 479 q 90 665 90 582 m 170 668 q 278 549 170 549 q 386 668 386 549 l 386 808 q 278 929 386 929 q 170 808 170 929 l 170 668 m 306 0 l 770 989 l 852 989 l 389 0 l 306 0 m 693 178 l 693 323 q 746 460 693 408 q 881 511 799 511 q 1015 460 962 511 q 1068 323 1068 408 l 1068 178 q 1015 42 1068 93 q 881 -9 962 -9 q 746 42 799 -9 q 693 178 693 93 m 772 180 q 881 60 772 60 q 989 180 989 60 l 989 321 q 881 441 989 441 q 772 321 772 441 l 772 180 z "},"&":{"ha":1026,"x_min":107,"x_max":932,"o":"m 107 279 q 124 377 107 332 q 175 458 140 421 q 239 517 210 494 q 321 575 269 541 q 270 640 286 616 q 233 706 253 663 q 214 790 214 749 q 276 938 214 879 q 432 997 338 997 q 586 937 525 997 q 647 789 647 878 q 538 612 647 687 q 464 562 488 579 l 717 258 q 759 353 747 304 q 772 485 771 401 l 872 485 q 781 182 869 289 l 932 0 l 800 0 l 711 109 q 419 -8 587 -8 q 192 70 276 -8 q 107 279 107 149 m 210 282 q 268 140 210 195 q 418 85 326 85 q 652 180 545 85 l 379 509 q 314 463 334 478 q 264 417 294 447 q 222 355 235 387 q 210 282 210 322 m 318 791 q 337 724 318 758 q 407 629 355 690 l 460 665 q 526 722 503 694 q 549 789 549 750 q 515 873 549 839 q 432 907 482 907 q 350 874 382 907 q 318 791 318 842 z "},"'":{"ha":354,"x_min":122,"x_max":232,"o":"m 122 753 l 122 989 l 232 989 l 232 753 l 122 753 z "},"(":{"ha":414,"x_min":127,"x_max":325,"o":"m 127 132 l 127 857 q 157 1000 127 947 q 257 1120 180 1043 l 325 1051 q 250 961 265 991 q 228 848 228 916 l 228 140 q 250 28 228 73 q 325 -62 265 -3 l 257 -131 q 157 -11 180 -54 q 127 132 127 42 z "},")":{"ha":414,"x_min":86,"x_max":285,"o":"m 86 -60 q 163 31 149 3 q 182 140 182 69 l 182 848 q 163 958 182 919 q 86 1048 149 986 l 157 1120 q 257 1000 233 1043 q 285 857 285 949 l 285 132 q 257 -11 285 41 q 157 -131 233 -54 l 86 -60 z "},"*":{"ha":658,"x_min":93,"x_max":566,"o":"m 93 656 l 260 746 l 93 838 l 134 904 l 294 806 l 289 996 l 370 996 l 364 806 l 526 904 l 566 838 l 399 746 l 566 656 l 526 587 l 364 686 l 370 496 l 289 496 l 294 686 l 134 587 l 93 656 z "},"+":{"ha":725,"x_min":72,"x_max":653,"o":"m 72 325 l 72 418 l 317 418 l 317 660 l 410 660 l 410 418 l 653 418 l 653 325 l 410 325 l 410 81 l 317 81 l 317 325 l 72 325 z "},",":{"ha":366,"x_min":122,"x_max":244,"o":"m 122 122 l 244 122 l 244 -90 l 122 -200 l 122 122 z "},"-":{"ha":591,"x_min":106,"x_max":486,"o":"m 106 328 l 106 421 l 486 421 l 486 328 l 106 328 z "},".":{"ha":374,"x_min":122,"x_max":253,"o":"m 122 0 l 122 131 l 253 131 l 253 0 l 122 0 z "},"/":{"ha":493,"x_min":0,"x_max":494,"o":"m 0 -103 l 396 1092 l 494 1092 l 98 -103 l 0 -103 z "},":":{"ha":412,"x_min":160,"x_max":290,"o":"m 160 0 l 160 131 l 290 131 l 290 0 l 160 0 m 160 418 l 160 549 l 290 549 l 290 418 l 160 418 z "},";":{"ha":412,"x_min":160,"x_max":290,"o":"m 160 418 l 160 549 l 290 549 l 290 418 l 160 418 m 163 122 l 285 122 l 285 -90 l 163 -200 l 163 122 z "},"<":{"ha":725,"x_min":132,"x_max":591,"o":"m 132 328 l 132 419 l 591 653 l 591 546 l 244 374 l 591 201 l 591 94 l 132 328 z "},"=":{"ha":725,"x_min":72,"x_max":653,"o":"m 72 210 l 72 301 l 653 301 l 653 210 l 72 210 m 72 444 l 72 538 l 653 538 l 653 444 l 72 444 z "},">":{"ha":725,"x_min":132,"x_max":591,"o":"m 132 94 l 132 201 l 479 374 l 132 546 l 132 653 l 591 419 l 591 328 l 132 94 z "},"?":{"ha":690,"x_min":106,"x_max":627,"o":"m 106 743 q 181 924 106 850 q 367 997 256 997 q 552 926 478 997 q 627 745 627 854 q 564 576 627 668 l 450 412 q 425 332 425 375 l 425 278 l 325 278 l 325 334 q 368 464 325 403 l 481 627 q 526 745 527 694 q 481 862 526 815 q 367 908 436 908 q 250 860 295 908 q 205 743 205 811 l 106 743 m 315 0 l 315 117 l 435 117 l 435 0 l 315 0 z "},"@":{"ha":990,"x_min":100,"x_max":890,"o":"m 100 222 l 100 689 q 178 913 100 833 q 392 990 254 991 l 597 990 q 811 913 734 990 q 890 689 890 833 l 890 -1 l 794 0 l 794 77 q 608 -9 726 -9 q 419 75 486 -9 q 371 176 385 118 q 358 330 358 233 q 415 585 358 509 q 607 671 479 671 q 793 583 722 671 l 793 692 q 739 850 793 795 q 585 905 684 905 l 404 905 q 253 850 309 905 q 210 784 222 819 q 197 692 197 749 l 197 224 q 213 124 197 159 q 277 56 229 90 l 208 -12 q 122 83 144 35 q 100 222 100 131 m 457 330 q 463 235 457 276 q 486 156 469 195 q 537 97 503 118 q 625 77 572 77 q 758 145 724 77 q 793 330 793 214 q 787 426 793 385 q 764 505 781 467 q 712 564 747 543 q 625 585 677 585 q 492 516 527 585 q 457 330 457 447 z "},"A":{"ha":848,"x_min":17,"x_max":832,"o":"m 17 0 l 380 989 l 469 989 l 832 0 l 720 0 l 640 224 l 208 224 l 129 0 l 17 0 m 240 315 l 610 315 l 427 838 l 240 315 z "},"B":{"ha":928,"x_min":143,"x_max":822,"o":"m 143 0 l 143 989 l 515 989 q 727 918 646 989 q 807 725 807 847 q 766 590 807 648 q 661 509 725 532 q 779 421 735 482 q 822 273 822 359 q 742 71 822 141 q 528 0 663 0 l 143 0 m 249 94 l 518 94 q 663 144 610 94 q 717 276 717 193 q 663 408 717 359 q 518 457 610 457 l 249 457 l 249 94 m 249 551 l 507 551 q 647 595 593 551 q 701 724 701 639 q 648 851 701 808 q 507 895 595 895 l 249 895 l 249 551 z "},"C":{"ha":884,"x_min":106,"x_max":794,"o":"m 120 235 q 113 274 120 235 q 106 494 106 313 q 120 753 106 676 q 199 895 135 831 q 450 997 301 997 q 452 997 450 997 q 678 919 587 997 q 794 703 770 842 l 686 703 q 605 848 667 794 q 452 903 543 903 q 281 833 347 903 q 223 722 236 787 q 211 494 211 657 q 223 267 211 332 q 281 155 236 201 q 452 86 347 86 q 606 140 543 86 q 689 286 669 195 l 794 286 q 677 70 770 149 q 452 -8 585 -8 q 199 94 302 -8 q 120 235 135 158 z "},"D":{"ha":935,"x_min":143,"x_max":829,"o":"m 143 0 l 143 989 l 482 989 q 732 897 640 989 q 781 827 761 868 q 810 758 802 786 q 824 670 819 729 q 829 593 829 611 q 829 505 829 574 q 811 243 829 319 q 732 92 787 147 q 482 0 640 0 l 143 0 m 249 94 l 464 94 q 659 167 587 94 q 706 265 690 200 q 722 373 721 330 q 724 505 724 415 q 722 631 724 591 q 706 730 721 671 q 659 822 690 789 q 464 895 588 894 l 249 895 l 249 94 z "},"E":{"ha":833,"x_min":143,"x_max":757,"o":"m 143 0 l 143 989 l 757 989 l 757 895 l 249 895 l 249 546 l 682 546 l 682 452 l 249 452 l 249 94 l 757 94 l 757 0 l 143 0 z "},"F":{"ha":805,"x_min":143,"x_max":757,"o":"m 143 0 l 143 989 l 757 989 l 757 895 l 249 895 l 249 530 l 682 530 l 682 436 l 249 436 l 249 0 l 143 0 z "},"G":{"ha":903,"x_min":106,"x_max":800,"o":"m 120 235 q 113 274 120 235 q 106 494 106 313 q 120 753 106 676 q 199 895 135 831 q 450 997 301 997 q 452 997 451 997 q 683 916 591 997 q 798 701 775 835 l 692 701 q 607 849 671 795 q 452 903 543 903 q 281 832 349 903 q 223 722 236 786 q 211 494 211 657 q 223 267 211 332 q 281 155 236 201 q 452 86 347 86 q 639 171 570 86 q 694 350 694 237 l 694 425 l 452 425 l 452 518 l 800 518 l 800 361 q 715 106 800 195 q 452 -8 610 -8 q 199 94 302 -8 q 120 235 135 158 z "},"H":{"ha":966,"x_min":143,"x_max":823,"o":"m 143 0 l 143 989 l 249 989 l 249 546 l 718 546 l 718 989 l 823 989 l 823 0 l 718 0 l 718 452 l 249 452 l 249 0 l 143 0 z "},"I":{"ha":391,"x_min":143,"x_max":249,"o":"m 143 0 l 143 989 l 249 989 l 249 0 l 143 0 z "},"J":{"ha":696,"x_min":32,"x_max":567,"o":"m 32 81 l 103 151 q 169 103 135 119 q 258 86 203 86 q 408 145 355 86 q 461 314 461 204 l 461 989 l 567 989 l 567 300 q 481 75 567 158 q 258 -8 396 -8 q 32 81 121 -8 z "},"K":{"ha":903,"x_min":143,"x_max":884,"o":"m 143 0 l 143 989 l 249 989 l 249 421 l 710 989 l 839 989 l 528 607 l 884 0 l 758 0 l 457 526 l 249 277 l 249 0 l 143 0 z "},"L":{"ha":795,"x_min":143,"x_max":754,"o":"m 143 0 l 143 989 l 249 989 l 249 94 l 754 94 l 754 0 l 143 0 z "},"M":{"ha":1133,"x_min":143,"x_max":990,"o":"m 143 0 l 143 989 l 249 989 l 571 288 l 885 989 l 990 989 l 990 0 l 885 0 l 885 751 l 614 155 l 524 155 l 249 751 l 249 0 l 143 0 z "},"N":{"ha":1017,"x_min":143,"x_max":873,"o":"m 143 0 l 143 989 l 243 989 l 768 199 l 768 989 l 873 989 l 873 0 l 774 0 l 249 793 l 249 0 l 143 0 z "},"O":{"ha":903,"x_min":106,"x_max":798,"o":"m 120 235 q 113 274 120 235 q 106 494 106 313 q 120 753 106 676 q 199 895 135 831 q 451 998 302 998 q 452 997 451 998 q 704 895 602 997 q 783 753 768 831 q 798 494 798 676 q 783 235 798 313 q 704 94 768 158 q 452 -9 601 -9 q 451 -8 452 -9 q 199 94 301 -8 q 120 235 135 158 m 223 722 q 217 689 223 722 q 211 494 211 657 q 223 267 211 332 q 281 157 236 203 q 451 86 349 86 q 623 157 554 86 q 680 267 667 203 q 692 494 692 332 q 679 722 692 657 q 623 832 667 786 q 452 903 555 903 q 281 832 349 903 q 223 722 236 786 z "},"P":{"ha":875,"x_min":143,"x_max":817,"o":"m 143 0 l 143 989 l 511 989 q 732 910 648 989 q 817 699 817 831 q 732 487 817 567 q 511 407 647 407 l 249 407 l 249 0 l 143 0 m 249 501 l 501 501 q 654 552 597 501 q 711 699 711 603 q 654 844 711 794 q 501 895 597 895 l 249 895 l 249 501 z "},"Q":{"ha":901,"x_min":106,"x_max":838,"o":"m 120 235 q 113 274 120 235 q 106 494 106 313 q 120 753 106 676 q 199 895 135 831 q 451 998 302 998 q 452 997 451 998 q 704 895 602 997 q 783 753 768 831 q 798 494 798 676 q 794 329 798 379 q 777 221 791 278 q 729 123 762 164 l 838 16 l 774 -49 l 664 61 q 452 -8 574 -8 q 199 94 302 -8 q 120 235 135 158 m 223 722 q 217 689 223 722 q 211 494 211 657 q 223 267 211 332 q 281 157 236 203 q 452 86 349 86 q 591 134 530 86 l 467 258 l 530 322 l 652 201 q 684 304 677 243 q 692 494 692 366 q 679 722 692 657 q 623 832 667 786 q 452 903 555 903 q 281 832 349 903 q 223 722 236 786 z "},"R":{"ha":911,"x_min":143,"x_max":835,"o":"m 143 0 l 143 989 l 522 989 q 734 915 653 989 q 815 714 815 840 q 757 539 815 608 q 600 449 699 469 l 835 0 l 711 0 l 486 439 l 249 439 l 249 0 l 143 0 m 249 532 l 513 532 q 656 578 603 532 q 710 713 710 625 q 656 847 710 800 q 513 895 602 895 l 249 895 l 249 532 z "},"S":{"ha":817,"x_min":58,"x_max":739,"o":"m 58 122 l 131 195 q 252 111 191 135 q 400 86 314 86 q 571 135 509 86 q 633 269 633 183 q 586 393 633 351 q 537 423 562 414 q 457 440 513 432 l 342 458 q 160 533 224 478 q 85 718 85 600 q 170 921 85 844 q 401 997 256 997 q 564 972 496 997 q 696 889 632 947 l 628 821 q 397 905 535 905 q 245 856 300 905 q 189 722 189 806 q 233 608 189 647 q 367 554 279 568 l 475 538 q 656 468 595 519 q 739 272 739 397 q 646 67 739 143 q 397 -8 553 -8 q 207 22 286 -8 q 58 122 127 53 z "},"T":{"ha":761,"x_min":41,"x_max":720,"o":"m 41 895 l 41 989 l 720 989 l 720 895 l 433 895 l 433 0 l 328 0 l 328 895 l 41 895 z "},"U":{"ha":948,"x_min":129,"x_max":819,"o":"m 129 326 l 129 989 l 235 989 l 235 335 q 300 154 235 222 q 474 86 366 86 q 648 154 582 86 q 714 335 714 222 l 714 989 l 819 989 l 819 326 q 722 85 819 179 q 474 -8 624 -8 q 226 85 323 -8 q 129 326 129 179 z "},"V":{"ha":758,"x_min":11,"x_max":747,"o":"m 11 989 l 122 989 l 379 189 l 636 989 l 747 989 l 422 0 l 336 0 l 11 989 z "},"W":{"ha":1185,"x_min":22,"x_max":1164,"o":"m 22 989 l 135 989 l 328 192 l 546 989 l 640 989 l 859 192 l 1051 989 l 1164 989 l 911 0 l 812 0 l 593 791 l 374 0 l 275 0 l 22 989 z "},"X":{"ha":765,"x_min":21,"x_max":745,"o":"m 21 0 l 323 507 l 40 989 l 163 989 l 382 599 l 602 989 l 724 989 l 439 507 l 745 0 l 623 0 l 382 415 l 140 0 l 21 0 z "},"Y":{"ha":713,"x_min":11,"x_max":703,"o":"m 11 989 l 125 989 l 358 515 l 589 989 l 703 989 l 411 408 l 411 0 l 306 0 l 306 408 l 11 989 z "},"Z":{"ha":772,"x_min":79,"x_max":693,"o":"m 79 0 l 79 100 l 574 895 l 98 895 l 98 989 l 693 989 l 693 900 l 195 94 l 693 94 l 693 0 l 79 0 z "},"[":{"ha":435,"x_min":127,"x_max":374,"o":"m 127 -103 l 127 1092 l 374 1092 l 374 1003 l 228 1003 l 228 -14 l 374 -14 l 374 -103 l 127 -103 z "},"\\":{"ha":493,"x_min":0,"x_max":493,"o":"m 0 1088 l 98 1088 l 493 -103 l 395 -103 l 0 1088 z "},"]":{"ha":435,"x_min":61,"x_max":307,"o":"m 61 -17 l 211 -17 l 211 1006 l 61 1006 l 61 1092 l 307 1092 l 307 -103 l 61 -103 l 61 -17 z "},"^":{"ha":745,"x_min":100,"x_max":646,"o":"m 100 574 l 328 997 l 419 997 l 646 574 l 543 574 l 374 890 l 203 574 l 100 574 z "},"_":{"ha":745,"x_min":0,"x_max":746,"o":"m 0 -158 l 746 -158 l 746 -229 l 0 -229 l 0 -158 z "},"`":{"ha":694,"x_min":174,"x_max":415,"o":"m 174 1038 l 293 1038 l 415 825 l 323 825 l 174 1038 z "},"a":{"ha":730,"x_min":71,"x_max":612,"o":"m 71 193 q 133 337 71 285 q 307 390 195 390 l 513 390 l 513 456 q 471 569 513 532 q 338 606 429 606 q 234 588 273 606 q 165 528 196 571 l 97 590 q 197 669 142 647 q 339 692 253 692 q 612 464 612 692 l 612 0 l 513 0 l 513 65 q 428 8 471 24 q 315 -8 385 -8 q 122 54 183 -8 q 71 193 71 106 m 168 195 q 325 78 168 78 q 478 123 431 78 q 513 241 513 157 l 513 315 l 321 315 q 168 195 168 315 z "},"b":{"ha":757,"x_min":125,"x_max":668,"o":"m 125 0 l 125 989 l 225 989 l 225 604 q 418 692 293 692 q 585 632 525 692 q 668 342 668 549 q 585 52 668 135 q 418 -8 525 -8 q 225 82 294 -8 l 225 0 l 125 0 m 231 440 q 228 420 231 440 q 225 342 225 399 q 231 243 225 285 q 255 162 237 201 q 308 101 272 122 q 397 81 345 81 q 486 101 450 81 q 539 162 522 122 q 562 243 555 201 q 568 342 568 285 q 562 440 568 399 q 539 522 555 482 q 486 582 522 561 q 397 603 450 603 q 308 582 345 603 q 255 522 272 561 q 231 440 237 482 z "},"c":{"ha":680,"x_min":87,"x_max":615,"o":"m 171 82 q 129 127 171 82 q 87 342 87 172 q 172 602 87 511 q 390 692 256 692 q 512 669 462 692 q 615 590 562 647 l 547 526 q 474 586 509 569 q 390 603 439 603 q 232 525 286 603 q 187 342 187 463 q 232 158 187 221 q 388 81 286 81 q 390 81 389 81 q 474 98 439 81 q 547 158 509 115 l 615 93 q 512 14 562 36 q 390 -8 463 -8 q 171 82 255 -8 z "},"d":{"ha":757,"x_min":89,"x_max":632,"o":"m 172 52 q 89 342 89 135 q 172 632 89 549 q 339 692 232 692 q 532 604 464 692 l 532 989 l 632 989 l 632 0 l 533 0 l 533 82 q 339 -8 464 -8 q 172 52 232 -8 m 195 440 q 192 420 195 440 q 189 342 189 399 q 195 243 189 285 q 219 162 201 201 q 272 101 236 122 q 361 81 309 81 q 450 101 414 81 q 503 162 486 122 q 526 243 519 201 q 532 342 532 285 q 526 440 532 399 q 503 522 519 482 q 450 582 486 561 q 361 603 414 603 q 272 582 309 603 q 219 522 236 561 q 195 440 201 482 z "},"e":{"ha":736,"x_min":87,"x_max":648,"o":"m 87 342 q 162 600 87 507 q 368 692 237 692 q 574 603 500 692 q 648 361 648 514 l 648 315 l 187 315 q 239 141 187 203 q 389 79 292 79 q 487 97 447 79 q 568 157 526 115 l 636 97 q 525 17 581 41 q 386 -8 469 -8 q 166 79 245 -8 q 87 342 87 165 m 187 390 l 549 390 q 528 504 545 462 q 465 579 508 551 q 368 607 422 607 q 271 579 314 607 q 208 504 228 551 q 187 390 191 463 z "},"f":{"ha":436,"x_min":60,"x_max":393,"o":"m 60 603 l 60 679 l 147 679 l 147 808 q 192 940 147 889 q 321 991 237 991 l 393 991 l 393 905 l 339 905 q 248 806 248 905 l 248 679 l 393 679 l 393 603 l 248 603 l 248 0 l 147 0 l 147 603 l 60 603 z "},"g":{"ha":754,"x_min":89,"x_max":629,"o":"m 172 62 q 89 347 89 146 q 172 632 89 549 q 339 692 232 692 q 530 603 463 692 l 530 684 l 629 684 l 629 -21 q 553 -232 629 -150 q 345 -314 476 -314 q 219 -293 269 -314 q 113 -222 168 -272 l 178 -158 q 253 -211 219 -195 q 342 -227 286 -227 q 483 -168 436 -227 q 529 -17 529 -110 l 529 90 q 338 1 460 1 q 172 62 233 1 m 195 442 q 192 422 195 442 q 189 347 189 401 q 195 253 189 293 q 218 173 201 212 q 271 113 235 134 q 360 92 307 92 q 448 113 412 92 q 500 173 484 134 q 523 253 517 212 q 529 347 529 293 q 523 442 529 401 q 500 522 517 482 q 448 582 484 561 q 360 603 412 603 q 271 582 307 603 q 218 522 235 561 q 195 442 201 482 z "},"h":{"ha":780,"x_min":125,"x_max":663,"o":"m 125 0 l 125 989 l 225 989 l 225 608 q 416 692 299 692 q 597 624 532 692 q 663 439 663 555 l 663 0 l 562 0 l 562 422 q 518 556 562 510 q 396 603 475 603 q 271 556 317 603 q 225 422 225 510 l 225 0 l 125 0 z "},"i":{"ha":351,"x_min":119,"x_max":232,"o":"m 119 878 l 119 990 l 232 990 l 232 878 l 119 878 m 125 0 l 125 684 l 225 684 l 225 0 l 125 0 z "},"j":{"ha":351,"x_min":-21,"x_max":232,"o":"m -21 -220 l 33 -220 q 104 -195 83 -220 q 125 -119 125 -171 l 125 679 l 225 679 l 225 -123 q 181 -256 225 -205 q 52 -307 138 -307 l -21 -307 l -21 -220 m 119 878 l 119 990 l 232 990 l 232 878 l 119 878 z "},"k":{"ha":744,"x_min":125,"x_max":699,"o":"m 125 0 l 125 989 l 225 989 l 225 328 l 533 684 l 659 684 l 427 422 l 699 0 l 575 0 l 358 350 l 225 197 l 225 0 l 125 0 z "},"l":{"ha":412,"x_min":122,"x_max":368,"o":"m 122 182 l 122 989 l 222 989 l 222 186 q 243 110 222 134 q 314 86 264 86 l 368 86 l 368 0 l 296 0 q 166 50 210 0 q 122 182 122 100 z "},"m":{"ha":1221,"x_min":125,"x_max":1103,"o":"m 125 0 l 125 684 l 225 684 l 225 608 q 418 692 297 692 q 628 578 564 692 q 852 692 709 692 q 1029 628 962 692 q 1103 437 1103 557 l 1103 0 l 1003 0 l 1003 421 q 959 556 1003 510 q 835 603 914 603 q 711 557 758 603 q 664 432 664 511 l 664 0 l 564 0 l 564 421 q 519 556 564 510 q 396 603 475 603 q 271 556 317 603 q 225 421 225 509 l 225 0 l 125 0 z "},"n":{"ha":780,"x_min":125,"x_max":663,"o":"m 125 0 l 125 684 l 225 684 l 225 608 q 416 692 297 692 q 591 628 528 692 q 663 437 662 559 l 663 0 l 562 0 l 562 421 q 518 556 562 510 q 394 603 473 603 q 270 556 315 603 q 225 421 225 509 l 225 0 l 125 0 z "},"o":{"ha":736,"x_min":89,"x_max":647,"o":"m 172 69 q 89 341 89 154 q 172 614 89 529 q 368 692 250 692 q 564 614 486 692 q 647 341 647 529 q 564 69 647 154 q 369 -9 486 -9 q 368 -8 369 -9 q 172 69 250 -8 m 244 131 q 368 81 294 81 q 493 131 444 81 q 547 341 547 184 q 493 553 547 498 q 368 603 443 603 q 244 553 294 603 q 189 343 189 497 q 244 131 189 186 z "},"p":{"ha":757,"x_min":125,"x_max":668,"o":"m 125 -306 l 125 684 l 225 684 l 225 603 q 418 692 293 692 q 585 632 525 692 q 668 342 668 549 q 585 52 668 135 q 418 -8 525 -8 q 225 81 294 -8 l 225 -306 l 125 -306 m 231 440 q 228 420 231 440 q 225 342 225 399 q 231 243 225 285 q 255 162 237 201 q 308 101 272 122 q 397 81 345 81 q 486 101 450 81 q 539 162 522 122 q 562 243 555 201 q 568 342 568 285 q 562 440 568 399 q 539 522 555 482 q 486 582 522 561 q 397 603 450 603 q 308 582 345 603 q 255 522 272 561 q 231 440 237 482 z "},"q":{"ha":757,"x_min":89,"x_max":632,"o":"m 172 52 q 89 342 89 135 q 172 632 89 549 q 339 692 232 692 q 533 603 465 692 l 533 684 l 632 684 l 632 -306 l 532 -306 l 532 81 q 339 -8 463 -8 q 172 52 232 -8 m 195 440 q 192 420 195 440 q 189 342 189 399 q 195 243 189 285 q 219 162 201 201 q 272 101 236 122 q 361 81 309 81 q 450 101 414 81 q 503 162 486 122 q 526 243 519 201 q 532 342 532 285 q 526 440 532 399 q 503 522 519 482 q 450 582 486 561 q 361 603 414 603 q 272 582 309 603 q 219 522 236 561 q 195 440 201 482 z "},"r":{"ha":585,"x_min":125,"x_max":581,"o":"m 125 0 l 125 684 l 225 684 l 225 600 q 305 667 253 643 q 416 692 357 692 q 581 628 517 692 l 507 553 q 454 592 479 581 q 389 603 428 603 q 270 551 315 603 q 225 419 225 498 l 225 0 l 125 0 z "},"s":{"ha":688,"x_min":60,"x_max":618,"o":"m 60 90 l 126 157 q 337 78 201 78 q 339 78 338 78 q 473 109 425 78 q 521 199 521 139 q 407 298 521 289 l 294 309 q 90 492 90 326 q 160 637 90 583 q 342 692 231 692 q 587 618 497 692 l 522 553 q 340 607 452 607 q 227 577 267 607 q 187 494 187 547 q 307 395 187 404 l 416 385 q 566 333 513 376 q 618 200 618 290 q 542 47 618 103 q 340 -8 467 -8 q 60 90 163 -8 z "},"t":{"ha":460,"x_min":56,"x_max":387,"o":"m 56 603 l 56 679 l 142 679 l 142 893 l 241 893 l 241 679 l 387 679 l 387 603 l 241 603 l 241 186 q 335 86 241 86 l 387 86 l 387 0 l 317 0 q 187 52 232 0 q 142 183 142 103 l 142 603 l 56 603 z "},"u":{"ha":780,"x_min":118,"x_max":656,"o":"m 118 248 l 118 684 l 218 684 l 218 262 q 262 127 218 174 q 385 81 306 81 q 510 128 464 81 q 555 262 555 175 l 555 684 l 656 684 l 656 0 l 557 0 l 557 77 q 364 -8 483 -8 q 187 56 252 -8 q 118 248 118 123 z "},"v":{"ha":621,"x_min":16,"x_max":606,"o":"m 16 684 l 123 684 l 310 135 l 497 684 l 606 684 l 354 0 l 265 0 l 16 684 z "},"w":{"ha":1005,"x_min":16,"x_max":990,"o":"m 16 684 l 123 684 l 281 135 l 460 684 l 546 684 l 726 135 l 882 684 l 990 684 l 775 0 l 682 0 l 503 530 l 325 0 l 232 0 l 16 684 z "},"x":{"ha":663,"x_min":46,"x_max":618,"o":"m 46 0 l 278 349 l 56 684 l 176 684 l 334 431 l 488 684 l 608 684 l 386 349 l 618 0 l 497 0 l 334 265 l 167 0 l 46 0 z "},"y":{"ha":621,"x_min":16,"x_max":606,"o":"m 16 684 l 123 684 l 311 135 l 497 684 l 606 684 l 294 -165 q 245 -245 275 -220 q 113 -293 197 -293 l 69 -293 l 69 -204 l 100 -204 q 173 -186 150 -204 q 212 -119 196 -168 l 261 14 l 16 684 z "},"z":{"ha":637,"x_min":69,"x_max":566,"o":"m 69 0 l 69 86 l 450 595 l 90 595 l 90 684 l 566 684 l 566 599 l 183 89 l 566 89 l 566 0 l 69 0 z "},"{":{"ha":491,"x_min":66,"x_max":424,"o":"m 66 450 l 66 539 l 103 539 q 165 564 140 539 q 191 647 191 589 l 191 913 q 232 1050 191 1008 q 372 1092 273 1092 l 424 1092 l 424 1003 l 392 1003 q 310 985 328 1003 q 290 895 290 965 l 290 633 q 268 547 290 578 q 203 494 245 515 q 268 442 245 473 q 290 355 290 411 l 290 94 q 310 4 290 24 q 392 -14 328 -14 l 424 -14 l 424 -103 l 372 -103 q 232 -61 274 -103 q 191 77 191 -20 l 191 342 q 165 425 191 400 q 103 450 140 450 l 66 450 z "},"|":{"ha":452,"x_min":176,"x_max":277,"o":"m 176 -103 l 176 1092 l 277 1092 l 277 -103 l 176 -103 z "},"}":{"ha":491,"x_min":66,"x_max":424,"o":"m 66 -14 l 100 -14 q 180 4 162 -14 q 201 94 201 25 l 201 355 q 223 442 201 411 q 289 494 245 473 q 224 547 246 515 q 201 633 201 578 l 201 895 q 180 985 201 964 q 100 1003 162 1003 l 66 1003 l 66 1092 l 119 1092 q 259 1050 218 1092 q 301 913 301 1008 l 301 647 q 326 564 301 589 q 389 539 351 539 l 424 539 l 424 450 l 389 450 q 326 425 351 450 q 301 342 301 400 l 301 77 q 260 -61 301 -19 q 119 -103 218 -103 l 66 -103 l 66 -14 z "},"~":{"ha":748,"x_min":68,"x_max":681,"o":"m 68 368 q 162 444 125 425 q 248 463 199 463 q 393 419 298 463 q 501 386 465 386 q 555 398 532 386 q 618 449 579 410 l 681 386 q 587 310 624 329 q 501 292 550 292 q 354 335 450 292 q 245 368 282 368 q 192 356 215 368 q 129 306 168 345 l 68 368 z "}," ":{"ha":345,"x_min":0,"x_max":0,"o":""},"¡":{"ha":439,"x_min":138,"x_max":257,"o":"m 138 567 l 138 684 l 257 684 l 257 567 l 138 567 m 140 -306 l 154 406 l 240 406 l 256 -306 l 140 -306 z "},"¢":{"ha":691,"x_min":87,"x_max":623,"o":"m 155 270 q 121 316 155 270 q 87 508 87 361 q 155 747 87 656 q 339 854 222 838 l 339 989 l 421 989 l 421 857 q 529 829 482 853 q 623 754 575 806 l 554 690 q 415 766 492 761 l 415 250 q 554 326 492 256 l 623 262 q 529 188 575 211 q 421 160 482 164 l 421 0 l 339 0 l 339 163 q 155 270 222 180 m 233 692 q 187 508 187 628 q 233 325 187 389 q 345 253 277 265 l 345 764 q 233 692 277 751 z "},"£":{"ha":761,"x_min":65,"x_max":689,"o":"m 65 458 l 65 533 l 153 533 l 153 689 q 239 913 153 829 q 463 997 325 997 q 689 908 600 997 l 616 838 q 551 887 583 871 q 463 903 518 903 q 313 844 366 903 q 260 675 260 785 l 260 533 l 463 533 l 463 458 l 260 458 l 260 94 l 689 94 l 689 0 l 153 0 l 153 458 l 65 458 z "},"¤":{"ha":916,"x_min":109,"x_max":808,"o":"m 109 90 l 211 193 q 150 377 150 275 q 211 559 150 478 l 109 661 l 172 725 l 275 624 q 458 684 355 684 q 640 624 562 684 l 745 725 l 808 661 l 705 559 q 766 376 766 477 q 705 193 766 275 l 808 90 l 745 26 l 640 129 q 458 68 558 68 q 275 129 357 68 l 172 26 l 109 90 m 241 376 q 306 223 241 286 q 458 160 370 160 q 610 223 547 160 q 673 376 673 286 q 610 529 673 467 q 458 591 547 591 q 305 528 368 591 q 241 376 241 465 z "},"¥":{"ha":713,"x_min":11,"x_max":703,"o":"m 11 989 l 125 989 l 358 515 l 590 989 l 703 989 l 485 557 l 624 557 l 624 482 l 447 482 l 411 408 l 411 336 l 624 336 l 624 260 l 411 260 l 411 0 l 304 0 l 304 260 l 90 260 l 90 336 l 304 336 l 304 408 l 268 482 l 90 482 l 90 557 l 229 557 l 11 989 z "},"¦":{"ha":465,"x_min":176,"x_max":277,"o":"m 176 -103 l 176 383 l 277 383 l 277 -103 l 176 -103 m 176 606 l 176 1092 l 277 1092 l 277 606 l 176 606 z "},"§":{"ha":773,"x_min":121,"x_max":653,"o":"m 121 350 q 162 489 121 431 q 267 578 204 547 q 138 770 138 636 q 208 934 138 871 q 388 997 278 997 q 567 938 497 997 q 640 779 636 879 l 541 779 q 387 908 531 908 q 277 873 317 908 q 237 771 237 838 q 354 637 237 671 l 463 607 q 603 514 553 581 q 653 353 653 447 q 611 214 653 273 q 509 125 570 155 q 606 51 570 102 q 643 -75 643 -1 q 570 -248 643 -182 q 387 -314 497 -314 q 205 -256 279 -314 q 125 -90 131 -197 l 227 -90 q 274 -188 232 -154 q 387 -222 317 -222 q 500 -184 459 -222 q 542 -77 542 -146 q 509 11 542 -28 q 419 65 476 49 l 311 96 q 170 188 220 122 q 121 350 121 254 m 268 479 q 245 454 268 479 q 222 351 222 429 q 268 223 222 273 q 388 174 314 174 q 507 224 461 174 q 551 351 551 272 q 507 479 551 435 q 387 529 457 530 q 268 479 313 529 z "},"¨":{"ha":694,"x_min":150,"x_max":545,"o":"m 150 836 l 150 960 l 250 960 l 250 836 l 150 836 m 444 836 l 444 960 l 545 960 l 545 836 l 444 836 z "},"©":{"ha":1223,"x_min":109,"x_max":1114,"o":"m 256 139 q 182 213 256 139 q 109 494 109 286 q 256 850 109 703 q 611 997 403 997 q 966 850 819 997 q 1114 494 1114 703 q 966 139 1114 286 q 611 -8 819 -8 q 256 139 403 -8 m 313 797 q 252 734 313 797 q 191 494 191 671 q 313 192 191 318 q 611 66 436 66 q 910 192 786 66 q 1034 494 1034 318 q 910 797 1034 671 q 611 922 786 922 q 313 797 436 922 m 435 290 q 403 329 435 290 q 371 494 371 368 q 435 699 371 621 q 618 778 500 778 q 800 704 716 778 l 750 654 q 618 708 689 709 q 489 649 529 708 q 449 494 449 590 q 489 340 449 399 q 618 282 529 282 q 750 335 690 282 l 800 285 q 618 212 720 213 q 435 290 500 212 z "},"ª":{"ha":623,"x_min":78,"x_max":507,"o":"m 78 596 q 127 712 78 670 q 265 754 176 754 l 425 754 l 425 804 q 394 892 425 864 q 290 921 363 921 q 209 908 239 921 q 154 860 179 895 l 97 911 q 178 976 133 957 q 292 994 224 994 q 507 811 507 994 l 507 443 l 427 443 l 427 493 q 272 436 368 436 q 119 486 169 436 q 78 596 78 531 m 160 599 q 279 509 160 509 q 399 543 363 509 q 425 636 425 568 l 425 692 l 277 692 q 160 599 160 692 z "},"«":{"ha":769,"x_min":56,"x_max":661,"o":"m 56 372 l 347 664 l 347 539 l 180 372 l 347 204 l 347 81 l 56 372 m 370 372 l 661 664 l 661 539 l 493 372 l 661 204 l 661 81 l 370 372 z "},"¬":{"ha":725,"x_min":71,"x_max":654,"o":"m 71 334 l 71 427 l 654 427 l 654 143 l 561 143 l 561 334 l 71 334 z "},"­":{"ha":591,"x_min":106,"x_max":486,"o":"m 106 328 l 106 421 l 486 421 l 486 328 l 106 328 z "},"®":{"ha":1223,"x_min":109,"x_max":1114,"o":"m 256 139 q 182 213 256 139 q 109 494 109 286 q 256 850 109 703 q 611 997 403 997 q 966 850 819 997 q 1114 494 1114 703 q 966 139 1114 286 q 611 -8 819 -8 q 256 139 403 -8 m 313 798 q 251 735 313 798 q 189 494 189 672 q 313 191 189 317 q 611 65 436 65 q 910 191 786 65 q 1035 494 1035 317 q 910 798 1035 672 q 611 924 786 924 q 313 798 436 924 m 447 220 l 447 771 l 635 771 q 758 723 707 771 q 808 606 808 675 q 690 454 808 490 l 822 220 l 733 220 l 607 444 l 524 444 l 524 220 l 447 220 m 524 510 l 627 510 q 702 537 673 510 q 730 605 730 564 q 701 675 730 647 q 627 703 672 703 l 524 703 l 524 510 z "},"¯":{"ha":694,"x_min":138,"x_max":555,"o":"m 138 851 l 138 930 l 555 930 l 555 851 l 138 851 z "},"°":{"ha":643,"x_min":93,"x_max":550,"o":"m 160 612 q 127 646 160 612 q 93 773 93 679 q 160 935 93 868 q 322 1002 228 1002 q 483 935 416 1002 q 550 773 550 868 q 483 612 550 679 q 322 546 416 546 q 160 612 228 546 m 219 879 q 198 857 219 879 q 178 774 178 836 q 219 669 178 711 q 322 627 261 627 q 424 669 383 627 q 465 774 465 711 q 424 879 465 836 q 321 921 382 921 q 219 879 260 921 z "},"±":{"ha":725,"x_min":72,"x_max":653,"o":"m 72 0 l 72 93 l 653 93 l 653 0 l 72 0 m 72 401 l 72 494 l 317 494 l 317 737 l 410 737 l 410 494 l 653 494 l 653 401 l 410 401 l 410 155 l 317 155 l 317 401 l 72 401 z "},"²":{"ha":475,"x_min":66,"x_max":408,"o":"m 66 396 l 66 468 l 296 749 q 328 829 328 789 q 303 897 328 871 q 237 922 279 922 q 173 899 199 922 q 147 829 147 876 l 66 829 q 115 949 66 905 q 237 994 163 994 q 361 949 314 994 q 408 829 408 904 q 354 701 408 768 l 163 468 l 408 468 l 408 396 l 66 396 z "},"³":{"ha":494,"x_min":66,"x_max":428,"o":"m 66 554 l 147 554 q 178 485 149 508 q 249 461 207 461 q 321 488 294 461 q 349 563 349 515 q 322 637 349 610 q 244 664 296 664 l 232 664 l 232 733 l 244 733 q 315 758 292 733 q 339 828 339 783 q 313 897 339 872 q 248 922 286 922 q 182 899 208 922 q 154 835 157 875 l 75 835 q 128 951 79 909 q 248 994 176 994 q 370 948 323 994 q 418 829 418 903 q 343 701 418 736 q 428 562 428 665 q 377 434 428 480 q 249 389 326 389 q 121 431 172 389 q 66 554 69 473 z "},"´":{"ha":694,"x_min":279,"x_max":521,"o":"m 279 825 l 401 1038 l 521 1038 l 371 825 l 279 825 z "},"µ":{"ha":779,"x_min":115,"x_max":654,"o":"m 115 -306 l 115 684 l 215 684 l 215 262 q 260 127 215 174 q 384 81 304 81 q 508 128 463 81 q 554 262 554 175 l 554 684 l 654 684 l 654 0 l 554 0 l 554 77 q 363 -8 480 -8 q 215 43 271 -8 l 215 -306 l 115 -306 z "},"¶":{"ha":837,"x_min":58,"x_max":694,"o":"m 58 720 q 140 912 58 835 q 359 989 221 989 l 694 989 l 694 -306 l 595 -306 l 595 895 l 432 895 l 432 -306 l 332 -306 l 332 453 q 135 533 211 453 q 58 720 58 612 z "},"·":{"ha":374,"x_min":122,"x_max":253,"o":"m 122 310 l 122 440 l 253 440 l 253 310 l 122 310 z "},"¸":{"ha":694,"x_min":243,"x_max":435,"o":"m 243 -300 l 342 -93 l 435 -93 l 353 -300 l 243 -300 z "},"¹":{"ha":362,"x_min":60,"x_max":254,"o":"m 60 799 l 60 890 l 175 989 l 254 989 l 254 396 l 175 396 l 175 900 l 60 799 z "},"º":{"ha":631,"x_min":93,"x_max":538,"o":"m 160 498 q 93 715 94 566 q 160 932 93 864 q 315 994 222 994 q 471 932 408 994 q 538 715 538 864 q 471 498 538 567 q 315 437 410 437 q 160 498 221 437 m 176 715 q 218 551 176 593 q 315 511 258 511 q 412 551 372 511 q 456 715 456 595 q 412 880 456 838 q 315 919 374 919 q 218 880 257 920 q 176 715 177 839 z "},"»":{"ha":769,"x_min":109,"x_max":714,"o":"m 109 81 l 109 204 l 277 372 l 109 539 l 109 664 l 400 372 l 109 81 m 422 81 l 422 204 l 589 372 l 422 539 l 422 664 l 714 372 l 422 81 z "},"¼":{"ha":1079,"x_min":60,"x_max":1023,"o":"m 60 799 l 60 890 l 175 989 l 254 989 l 254 396 l 175 396 l 175 900 l 60 799 m 240 0 l 703 989 l 786 989 l 323 0 l 240 0 m 642 89 l 642 163 l 851 593 l 937 593 l 729 163 l 880 163 l 880 309 l 958 309 l 958 163 l 1023 163 l 1023 89 l 958 89 l 958 0 l 880 0 l 880 89 l 642 89 z "},"½":{"ha":1097,"x_min":60,"x_max":1031,"o":"m 60 799 l 60 890 l 175 989 l 254 989 l 254 396 l 175 396 l 175 900 l 60 799 m 224 0 l 686 989 l 770 989 l 307 0 l 224 0 m 689 0 l 689 72 l 918 353 q 950 433 950 393 q 926 500 950 475 q 860 526 901 526 q 795 504 821 526 q 770 433 770 481 l 689 433 q 737 554 689 509 q 860 599 785 599 q 984 554 937 599 q 1031 433 1031 509 q 977 306 1031 372 l 786 72 l 1031 72 l 1031 0 l 689 0 z "},"¾":{"ha":1141,"x_min":66,"x_max":1086,"o":"m 66 554 l 147 554 q 178 485 149 508 q 249 461 207 461 q 321 488 294 461 q 349 563 349 515 q 322 637 349 610 q 244 664 296 664 l 232 664 l 232 733 l 244 733 q 315 758 292 733 q 339 828 339 783 q 313 897 339 872 q 248 922 286 922 q 182 899 208 922 q 154 835 157 875 l 75 835 q 128 951 79 909 q 248 994 176 994 q 370 948 323 994 q 418 829 418 903 q 343 701 418 736 q 428 562 428 665 q 377 434 428 480 q 249 389 326 389 q 121 431 172 389 q 66 554 69 473 m 313 0 l 777 989 l 860 989 l 396 0 l 313 0 m 704 89 l 704 163 l 914 593 l 1000 593 l 790 163 l 943 163 l 943 309 l 1021 309 l 1021 163 l 1086 163 l 1086 89 l 1021 89 l 1021 0 l 943 0 l 943 89 l 704 89 z "},"¿":{"ha":690,"x_min":64,"x_max":585,"o":"m 64 -60 q 127 107 64 14 l 241 271 q 267 351 267 308 l 267 407 l 367 407 l 367 350 q 322 220 367 283 l 210 58 q 164 -60 163 -9 q 210 -176 164 -129 q 325 -224 256 -224 q 441 -176 397 -224 q 485 -60 485 -127 l 585 -60 q 510 -240 585 -167 q 325 -314 436 -314 q 139 -242 214 -314 q 64 -60 64 -170 m 257 567 l 257 684 l 375 684 l 375 567 l 257 567 z "},"À":{"ha":848,"x_min":17,"x_max":832,"o":"m 17 0 l 380 989 l 469 989 l 832 0 l 720 0 l 640 224 l 208 224 l 129 0 l 17 0 m 240 315 l 610 315 l 427 838 l 240 315 m 245 1297 l 366 1297 l 488 1084 l 396 1084 l 245 1297 z "},"Á":{"ha":848,"x_min":17,"x_max":832,"o":"m 17 0 l 380 989 l 469 989 l 832 0 l 720 0 l 640 224 l 208 224 l 129 0 l 17 0 m 240 315 l 610 315 l 427 838 l 240 315 m 351 1084 l 473 1297 l 593 1297 l 443 1084 l 351 1084 z "},"Â":{"ha":848,"x_min":17,"x_max":832,"o":"m 17 0 l 380 989 l 469 989 l 832 0 l 720 0 l 640 224 l 208 224 l 129 0 l 17 0 m 199 1084 l 372 1297 l 467 1297 l 640 1084 l 545 1084 l 419 1229 l 294 1084 l 199 1084 m 240 315 l 610 315 l 427 838 l 240 315 z "},"Ã":{"ha":848,"x_min":17,"x_max":832,"o":"m 17 0 l 380 989 l 469 989 l 832 0 l 720 0 l 640 224 l 208 224 l 129 0 l 17 0 m 196 1169 q 328 1240 267 1240 q 427 1207 375 1240 q 504 1179 471 1179 q 586 1223 541 1179 l 637 1173 q 505 1103 567 1103 q 407 1135 460 1103 q 329 1164 357 1164 q 248 1120 292 1164 l 196 1169 m 240 315 l 610 315 l 427 838 l 240 315 z "},"Ä":{"ha":848,"x_min":17,"x_max":832,"o":"m 17 0 l 380 989 l 469 989 l 832 0 l 720 0 l 640 224 l 208 224 l 129 0 l 17 0 m 228 1096 l 228 1219 l 328 1219 l 328 1096 l 228 1096 m 240 315 l 610 315 l 427 838 l 240 315 m 522 1096 l 522 1219 l 623 1219 l 623 1096 l 522 1096 z "},"Å":{"ha":848,"x_min":17,"x_max":832,"o":"m 17 0 l 380 989 l 469 989 l 832 0 l 720 0 l 640 224 l 208 224 l 129 0 l 17 0 m 240 315 l 610 315 l 427 838 l 240 315 m 303 1087 q 280 1112 303 1087 q 256 1204 256 1136 q 303 1320 256 1272 q 419 1368 351 1368 q 535 1320 488 1368 q 583 1204 583 1272 q 535 1087 583 1136 q 419 1039 488 1039 q 303 1087 351 1039 m 323 1204 q 352 1136 323 1164 q 419 1108 380 1108 q 487 1136 458 1108 q 515 1204 515 1164 q 488 1271 515 1243 q 419 1299 460 1299 q 351 1271 379 1299 q 323 1204 323 1243 z "},"Æ":{"ha":1280,"x_min":11,"x_max":1204,"o":"m 11 0 l 533 989 l 1204 989 l 1204 895 l 696 895 l 696 543 l 1129 543 l 1129 449 l 696 449 l 696 94 l 1204 94 l 1204 0 l 591 0 l 591 235 l 249 235 l 126 0 l 11 0 m 294 326 l 591 326 l 591 895 l 294 326 z "},"Ç":{"ha":884,"x_min":106,"x_max":794,"o":"m 120 235 q 113 274 120 235 q 106 494 106 313 q 120 753 106 676 q 199 895 135 831 q 452 997 302 998 q 678 919 587 997 q 794 703 770 842 l 686 703 q 605 848 667 794 q 452 903 543 903 q 281 833 347 903 q 223 722 236 787 q 211 494 211 657 q 223 267 211 332 q 281 155 236 201 q 452 86 347 86 q 606 140 543 86 q 689 286 669 195 l 794 286 q 677 70 770 149 q 452 -8 585 -8 q 199 94 302 -8 q 120 235 135 158 m 322 -300 l 421 -93 l 514 -93 l 432 -300 l 322 -300 z "},"È":{"ha":833,"x_min":143,"x_max":757,"o":"m 143 0 l 143 989 l 757 989 l 757 895 l 249 895 l 249 546 l 682 546 l 682 452 l 249 452 l 249 94 l 757 94 l 757 0 l 143 0 m 261 1297 l 380 1297 l 503 1084 l 411 1084 l 261 1297 z "},"É":{"ha":833,"x_min":143,"x_max":757,"o":"m 143 0 l 143 989 l 757 989 l 757 895 l 249 895 l 249 546 l 682 546 l 682 452 l 249 452 l 249 94 l 757 94 l 757 0 l 143 0 m 367 1084 l 489 1297 l 608 1297 l 458 1084 l 367 1084 z "},"Ê":{"ha":833,"x_min":143,"x_max":757,"o":"m 143 0 l 143 989 l 757 989 l 757 895 l 249 895 l 249 546 l 682 546 l 682 452 l 249 452 l 249 94 l 757 94 l 757 0 l 143 0 m 214 1084 l 387 1297 l 482 1297 l 656 1084 l 559 1084 l 435 1229 l 310 1084 l 214 1084 z "},"Ë":{"ha":833,"x_min":143,"x_max":757,"o":"m 143 0 l 143 989 l 757 989 l 757 895 l 249 895 l 249 546 l 682 546 l 682 452 l 249 452 l 249 94 l 757 94 l 757 0 l 143 0 m 237 1096 l 237 1219 l 338 1219 l 338 1096 l 237 1096 m 532 1096 l 532 1219 l 632 1219 l 632 1096 l 532 1096 z "},"Ì":{"ha":391,"x_min":7,"x_max":249,"o":"m 7 1297 l 126 1297 l 249 1084 l 157 1084 l 7 1297 m 143 0 l 143 989 l 249 989 l 249 0 l 143 0 z "},"Í":{"ha":391,"x_min":143,"x_max":385,"o":"m 143 0 l 143 989 l 249 989 l 249 0 l 143 0 m 143 1084 l 265 1297 l 385 1297 l 235 1084 l 143 1084 z "},"Î":{"ha":391,"x_min":-26,"x_max":415,"o":"m -26 1084 l 147 1297 l 241 1297 l 415 1084 l 319 1084 l 195 1229 l 69 1084 l -26 1084 m 143 0 l 143 989 l 249 989 l 249 0 l 143 0 z "},"Ï":{"ha":391,"x_min":-1,"x_max":393,"o":"m -1 1096 l -1 1219 l 98 1219 l 98 1096 l -1 1096 m 143 0 l 143 989 l 249 989 l 249 0 l 143 0 m 293 1096 l 293 1219 l 393 1219 l 393 1096 l 293 1096 z "},"Ð":{"ha":954,"x_min":54,"x_max":848,"o":"m 54 458 l 54 541 l 163 541 l 163 989 l 503 989 q 787 840 690 989 q 839 718 829 777 q 848 494 848 660 q 838 263 848 325 q 787 146 827 201 q 494 0 683 0 l 163 0 l 163 458 l 54 458 m 269 93 l 484 93 q 700 196 631 93 q 736 291 729 241 q 743 489 743 340 q 735 693 743 637 q 693 796 726 749 q 484 896 619 896 l 269 896 l 269 541 l 493 541 l 493 458 l 269 458 l 269 93 z "},"Ñ":{"ha":1017,"x_min":143,"x_max":873,"o":"m 143 0 l 143 989 l 243 989 l 768 199 l 768 989 l 873 989 l 873 0 l 774 0 l 249 793 l 249 0 l 143 0 m 285 1169 q 416 1240 355 1240 q 515 1207 464 1240 q 593 1179 560 1179 q 675 1223 630 1179 l 726 1173 q 595 1103 656 1103 q 496 1135 550 1103 q 418 1164 446 1164 q 336 1120 380 1164 l 285 1169 z "},"Ò":{"ha":903,"x_min":106,"x_max":798,"o":"m 120 235 q 113 274 120 235 q 106 494 106 313 q 120 753 106 676 q 199 895 135 831 q 452 997 302 998 q 704 895 602 997 q 783 753 768 831 q 798 494 798 676 q 783 235 798 313 q 704 94 768 158 q 451 -8 601 -9 q 199 94 301 -8 q 120 235 135 158 m 223 722 q 217 689 223 722 q 211 494 211 657 q 223 267 211 332 q 281 157 236 203 q 451 86 349 86 q 623 157 554 86 q 680 267 667 203 q 692 494 692 332 q 679 722 692 657 q 623 832 667 786 q 452 903 555 903 q 281 832 349 903 q 223 722 236 786 m 278 1297 l 397 1297 l 519 1084 l 428 1084 l 278 1297 z "},"Ó":{"ha":903,"x_min":106,"x_max":798,"o":"m 120 235 q 113 274 120 235 q 106 494 106 313 q 120 753 106 676 q 199 895 135 831 q 452 997 302 998 q 704 895 602 997 q 783 753 768 831 q 798 494 798 676 q 783 235 798 313 q 704 94 768 158 q 451 -8 601 -9 q 199 94 301 -8 q 120 235 135 158 m 223 722 q 217 689 223 722 q 211 494 211 657 q 223 267 211 332 q 281 157 236 203 q 451 86 349 86 q 623 157 554 86 q 680 267 667 203 q 692 494 692 332 q 679 722 692 657 q 623 832 667 786 q 452 903 555 903 q 281 832 349 903 q 223 722 236 786 m 383 1084 l 505 1297 l 625 1297 l 475 1084 l 383 1084 z "},"Ô":{"ha":903,"x_min":106,"x_max":798,"o":"m 120 235 q 113 274 120 235 q 106 494 106 313 q 120 753 106 676 q 199 895 135 831 q 452 997 302 998 q 704 895 602 997 q 783 753 768 831 q 798 494 798 676 q 783 235 798 313 q 704 94 768 158 q 451 -8 601 -9 q 199 94 301 -8 q 120 235 135 158 m 223 722 q 217 689 223 722 q 211 494 211 657 q 223 267 211 332 q 281 157 236 203 q 451 86 349 86 q 623 157 554 86 q 680 267 667 203 q 692 494 692 332 q 679 722 692 657 q 623 832 667 786 q 452 903 555 903 q 281 832 349 903 q 223 722 236 786 m 231 1084 l 404 1297 l 498 1297 l 672 1084 l 576 1084 l 452 1229 l 326 1084 l 231 1084 z "},"Õ":{"ha":903,"x_min":106,"x_max":798,"o":"m 120 235 q 113 274 120 235 q 106 494 106 313 q 120 753 106 676 q 199 895 135 831 q 452 997 302 998 q 704 895 602 997 q 783 753 768 831 q 798 494 798 676 q 783 235 798 313 q 704 94 768 158 q 451 -8 601 -9 q 199 94 301 -8 q 120 235 135 158 m 223 722 q 217 689 223 722 q 211 494 211 657 q 223 267 211 332 q 281 157 236 203 q 451 86 349 86 q 623 157 554 86 q 680 267 667 203 q 692 494 692 332 q 679 722 692 657 q 623 832 667 786 q 452 903 555 903 q 281 832 349 903 q 223 722 236 786 m 228 1169 q 359 1240 298 1240 q 458 1207 406 1240 q 536 1179 503 1179 q 618 1223 574 1179 l 669 1173 q 538 1103 599 1103 q 439 1135 493 1103 q 361 1164 389 1164 q 279 1120 323 1164 l 228 1169 z "},"Ö":{"ha":903,"x_min":106,"x_max":798,"o":"m 120 235 q 113 274 120 235 q 106 494 106 313 q 120 753 106 676 q 199 895 135 831 q 452 997 302 998 q 704 895 602 997 q 783 753 768 831 q 798 494 798 676 q 783 235 798 313 q 704 94 768 158 q 451 -8 601 -9 q 199 94 301 -8 q 120 235 135 158 m 223 722 q 217 689 223 722 q 211 494 211 657 q 223 267 211 332 q 281 157 236 203 q 451 86 349 86 q 623 157 554 86 q 680 267 667 203 q 692 494 692 332 q 679 722 692 657 q 623 832 667 786 q 452 903 555 903 q 281 832 349 903 q 223 722 236 786 m 254 1096 l 254 1219 l 354 1219 l 354 1096 l 254 1096 m 549 1096 l 549 1219 l 648 1219 l 648 1096 l 549 1096 z "},"×":{"ha":725,"x_min":90,"x_max":635,"o":"m 90 165 l 300 375 l 90 585 l 153 647 l 363 436 l 572 647 l 635 585 l 424 375 l 635 165 l 572 103 l 363 313 l 153 103 l 90 165 z "},"Ø":{"ha":905,"x_min":106,"x_max":798,"o":"m 120 235 q 113 274 120 235 q 106 494 106 313 q 120 753 106 676 q 199 895 135 831 q 452 997 302 998 q 625 954 549 997 l 672 1050 l 762 1050 l 693 905 l 704 895 q 783 753 768 831 q 798 494 798 676 q 783 235 798 313 q 704 94 768 158 q 452 -8 601 -9 q 277 36 355 -8 l 231 -61 l 140 -61 l 210 83 l 199 94 q 120 235 135 158 m 211 494 q 220 287 211 350 q 260 182 229 224 l 585 863 q 452 903 522 903 q 281 832 349 903 q 223 722 236 786 q 211 494 211 657 m 318 126 q 452 86 380 86 q 623 157 555 86 q 679 267 667 203 q 690 494 690 330 q 682 703 690 640 q 643 807 673 765 l 318 126 z "},"Ù":{"ha":948,"x_min":129,"x_max":819,"o":"m 129 326 l 129 989 l 235 989 l 235 335 q 300 154 235 222 q 474 86 366 86 q 648 154 582 86 q 714 335 714 222 l 714 989 l 819 989 l 819 326 q 722 85 819 179 q 474 -8 624 -8 q 226 85 323 -8 q 129 326 129 179 m 300 1297 l 419 1297 l 542 1084 l 450 1084 l 300 1297 z "},"Ú":{"ha":948,"x_min":129,"x_max":819,"o":"m 129 326 l 129 989 l 235 989 l 235 335 q 300 154 235 222 q 474 86 366 86 q 648 154 582 86 q 714 335 714 222 l 714 989 l 819 989 l 819 326 q 722 85 819 179 q 474 -8 624 -8 q 226 85 323 -8 q 129 326 129 179 m 406 1084 l 528 1297 l 647 1297 l 497 1084 l 406 1084 z "},"Û":{"ha":948,"x_min":129,"x_max":819,"o":"m 129 326 l 129 989 l 235 989 l 235 335 q 300 154 235 222 q 474 86 366 86 q 648 154 582 86 q 714 335 714 222 l 714 989 l 819 989 l 819 326 q 722 85 819 179 q 474 -8 624 -8 q 226 85 323 -8 q 129 326 129 179 m 253 1084 l 427 1297 l 521 1297 l 694 1084 l 599 1084 l 473 1229 l 349 1084 l 253 1084 z "},"Ü":{"ha":948,"x_min":129,"x_max":819,"o":"m 129 326 l 129 989 l 235 989 l 235 335 q 300 154 235 222 q 474 86 366 86 q 648 154 582 86 q 714 335 714 222 l 714 989 l 819 989 l 819 326 q 722 85 819 179 q 474 -8 624 -8 q 226 85 323 -8 q 129 326 129 179 m 277 1096 l 277 1219 l 376 1219 l 376 1096 l 277 1096 m 571 1096 l 571 1219 l 671 1219 l 671 1096 l 571 1096 z "},"Ý":{"ha":713,"x_min":11,"x_max":703,"o":"m 11 989 l 125 989 l 358 515 l 589 989 l 703 989 l 411 408 l 411 0 l 306 0 l 306 408 l 11 989 m 289 1084 l 411 1297 l 530 1297 l 380 1084 l 289 1084 z "},"Þ":{"ha":891,"x_min":143,"x_max":817,"o":"m 143 0 l 143 989 l 249 989 l 249 790 l 511 790 q 732 710 648 790 q 817 499 817 631 q 732 288 817 367 q 511 208 647 208 l 249 208 l 249 0 l 143 0 m 249 302 l 501 302 q 654 353 597 302 q 711 499 711 403 q 654 645 711 595 q 501 694 597 694 l 249 694 l 249 302 z "},"ß":{"ha":772,"x_min":125,"x_max":672,"o":"m 125 0 l 125 728 q 200 928 125 857 q 404 999 275 999 q 597 940 522 999 q 672 768 672 882 q 585 603 672 660 q 653 539 635 576 q 672 436 672 503 l 672 196 q 618 50 672 100 q 475 0 564 0 l 400 0 l 400 86 l 456 86 q 538 114 505 86 q 572 207 572 142 l 572 441 q 543 528 572 498 q 461 557 514 557 l 400 557 l 400 640 l 450 640 q 538 674 505 640 q 572 766 572 708 q 529 871 572 830 q 399 911 488 911 q 227 724 227 911 l 227 0 l 125 0 z "},"à":{"ha":730,"x_min":71,"x_max":612,"o":"m 71 193 q 133 337 71 285 q 307 390 195 390 l 513 390 l 513 456 q 471 569 513 532 q 338 606 429 606 q 234 588 273 606 q 165 528 196 571 l 97 590 q 197 669 142 647 q 339 692 253 692 q 612 464 612 692 l 612 0 l 513 0 l 513 65 q 428 8 471 24 q 315 -8 385 -8 q 122 54 183 -8 q 71 193 71 106 m 168 195 q 325 78 168 78 q 478 123 431 78 q 513 241 513 157 l 513 315 l 321 315 q 168 195 168 315 m 176 1038 l 296 1038 l 418 825 l 326 825 l 176 1038 z "},"á":{"ha":730,"x_min":71,"x_max":612,"o":"m 71 193 q 133 337 71 285 q 307 390 195 390 l 513 390 l 513 456 q 471 569 513 532 q 338 606 429 606 q 234 588 273 606 q 165 528 196 571 l 97 590 q 197 669 142 647 q 339 692 253 692 q 612 464 612 692 l 612 0 l 513 0 l 513 65 q 428 8 471 24 q 315 -8 385 -8 q 122 54 183 -8 q 71 193 71 106 m 168 195 q 325 78 168 78 q 478 123 431 78 q 513 241 513 157 l 513 315 l 321 315 q 168 195 168 315 m 282 825 l 404 1038 l 524 1038 l 374 825 l 282 825 z "},"â":{"ha":730,"x_min":71,"x_max":612,"o":"m 71 193 q 133 337 71 285 q 307 390 195 390 l 513 390 l 513 456 q 471 569 513 532 q 338 606 429 606 q 234 588 273 606 q 165 528 196 571 l 97 590 q 197 669 142 647 q 339 692 253 692 q 612 464 612 692 l 612 0 l 513 0 l 513 65 q 428 8 471 24 q 315 -8 385 -8 q 122 54 183 -8 q 71 193 71 106 m 129 825 l 302 1038 l 397 1038 l 571 825 l 475 825 l 350 970 l 225 825 l 129 825 m 168 195 q 325 78 168 78 q 478 123 431 78 q 513 241 513 157 l 513 315 l 321 315 q 168 195 168 315 z "},"ã":{"ha":730,"x_min":71,"x_max":612,"o":"m 71 193 q 133 337 71 285 q 307 390 195 390 l 513 390 l 513 456 q 471 569 513 532 q 338 606 429 606 q 234 588 273 606 q 165 528 196 571 l 97 590 q 197 669 142 647 q 339 692 253 692 q 612 464 612 692 l 612 0 l 513 0 l 513 65 q 428 8 471 24 q 315 -8 385 -8 q 122 54 183 -8 q 71 193 71 106 m 126 909 q 258 981 197 980 q 357 947 306 981 q 435 920 406 920 q 517 964 472 920 l 568 914 q 436 843 499 844 q 338 876 395 843 q 260 904 289 904 q 178 860 222 904 l 126 909 m 168 195 q 325 78 168 78 q 478 123 431 78 q 513 241 513 157 l 513 315 l 321 315 q 168 195 168 315 z "},"ä":{"ha":730,"x_min":71,"x_max":612,"o":"m 71 193 q 133 337 71 285 q 307 390 195 390 l 513 390 l 513 456 q 471 569 513 532 q 338 606 429 606 q 234 588 273 606 q 165 528 196 571 l 97 590 q 197 669 142 647 q 339 692 253 692 q 612 464 612 692 l 612 0 l 513 0 l 513 65 q 428 8 471 24 q 315 -8 385 -8 q 122 54 183 -8 q 71 193 71 106 m 153 836 l 153 960 l 253 960 l 253 836 l 153 836 m 168 195 q 325 78 168 78 q 478 123 431 78 q 513 241 513 157 l 513 315 l 321 315 q 168 195 168 315 m 447 836 l 447 960 l 547 960 l 547 836 l 447 836 z "},"å":{"ha":730,"x_min":71,"x_max":612,"o":"m 71 193 q 133 337 71 285 q 307 390 195 390 l 513 390 l 513 456 q 471 569 513 532 q 338 606 429 606 q 234 588 273 606 q 165 528 196 571 l 97 590 q 197 669 142 647 q 339 692 253 692 q 612 464 612 692 l 612 0 l 513 0 l 513 65 q 428 8 471 24 q 315 -8 385 -8 q 122 54 183 -8 q 71 193 71 106 m 168 195 q 325 78 168 78 q 478 123 431 78 q 513 241 513 157 l 513 315 l 321 315 q 168 195 168 315 m 234 838 q 210 862 234 838 q 186 954 186 886 q 234 1070 186 1022 q 350 1118 282 1118 q 466 1070 418 1118 q 514 954 514 1022 q 466 838 514 886 q 350 789 418 789 q 234 838 282 789 m 254 954 q 283 886 254 914 q 350 859 311 859 q 417 886 389 859 q 446 954 446 914 q 418 1021 446 993 q 350 1048 390 1048 q 282 1021 310 1048 q 254 954 254 993 z "},"æ":{"ha":1160,"x_min":71,"x_max":1074,"o":"m 71 193 q 133 337 71 285 q 307 390 195 390 l 513 390 l 513 456 q 471 569 513 532 q 338 606 429 606 q 234 588 273 606 q 165 528 196 571 l 97 590 q 197 669 142 647 q 339 692 253 692 q 579 585 522 692 q 793 692 651 692 q 999 603 925 692 q 1074 361 1074 514 l 1074 315 l 611 315 q 664 141 611 203 q 814 79 717 79 q 910 97 871 79 q 991 157 950 115 l 1061 97 q 949 17 1006 41 q 808 -8 892 -8 q 566 110 639 -8 q 463 18 519 45 q 315 -8 406 -8 q 122 54 183 -8 q 71 193 71 106 m 168 195 q 325 78 168 78 q 478 123 431 78 q 513 241 513 157 l 513 315 l 321 315 q 168 195 168 315 m 611 390 l 974 390 q 953 504 970 462 q 890 579 933 551 q 793 607 847 607 q 696 579 739 607 q 633 504 653 551 q 611 390 614 458 z "},"ç":{"ha":680,"x_min":87,"x_max":615,"o":"m 171 82 q 129 127 171 82 q 87 342 87 172 q 172 602 87 511 q 390 692 256 692 q 512 669 462 692 q 615 590 562 647 l 547 526 q 474 586 509 569 q 390 603 439 603 q 232 525 286 603 q 187 342 187 463 q 232 158 187 221 q 390 81 286 80 q 474 98 439 81 q 547 158 509 115 l 615 93 q 512 14 562 36 q 390 -8 463 -8 q 171 82 255 -8 m 243 -300 l 342 -93 l 435 -93 l 353 -300 l 243 -300 z "},"è":{"ha":736,"x_min":87,"x_max":648,"o":"m 87 342 q 162 600 87 507 q 368 692 237 692 q 574 603 500 692 q 648 361 648 514 l 648 315 l 187 315 q 239 141 187 203 q 389 79 292 79 q 487 97 447 79 q 568 157 526 115 l 636 97 q 525 17 581 41 q 386 -8 469 -8 q 166 79 245 -8 q 87 342 87 165 m 187 390 l 549 390 q 528 504 545 462 q 465 579 508 551 q 368 607 422 607 q 271 579 314 607 q 208 504 228 551 q 187 390 191 463 m 199 1038 l 318 1038 l 440 825 l 349 825 l 199 1038 z "},"é":{"ha":736,"x_min":87,"x_max":648,"o":"m 87 342 q 162 600 87 507 q 368 692 237 692 q 574 603 500 692 q 648 361 648 514 l 648 315 l 187 315 q 239 141 187 203 q 389 79 292 79 q 487 97 447 79 q 568 157 526 115 l 636 97 q 525 17 581 41 q 386 -8 469 -8 q 166 79 245 -8 q 87 342 87 165 m 187 390 l 549 390 q 528 504 545 462 q 465 579 508 551 q 368 607 422 607 q 271 579 314 607 q 208 504 228 551 q 187 390 191 463 m 304 825 l 427 1038 l 546 1038 l 396 825 l 304 825 z "},"ê":{"ha":736,"x_min":87,"x_max":648,"o":"m 87 342 q 162 600 87 507 q 368 692 237 692 q 574 603 500 692 q 648 361 648 514 l 648 315 l 187 315 q 239 141 187 203 q 389 79 292 79 q 487 97 447 79 q 568 157 526 115 l 636 97 q 525 17 581 41 q 386 -8 469 -8 q 166 79 245 -8 q 87 342 87 165 m 151 825 l 325 1038 l 419 1038 l 593 825 l 497 825 l 372 970 l 248 825 l 151 825 m 187 390 l 549 390 q 528 504 545 462 q 465 579 508 551 q 368 607 422 607 q 271 579 314 607 q 208 504 228 551 q 187 390 191 463 z "},"ë":{"ha":736,"x_min":87,"x_max":648,"o":"m 87 342 q 162 600 87 507 q 368 692 237 692 q 574 603 500 692 q 648 361 648 514 l 648 315 l 187 315 q 239 141 187 203 q 389 79 292 79 q 487 97 447 79 q 568 157 526 115 l 636 97 q 525 17 581 41 q 386 -8 469 -8 q 166 79 245 -8 q 87 342 87 165 m 174 836 l 174 960 l 273 960 l 273 836 l 174 836 m 187 390 l 549 390 q 528 504 545 462 q 465 579 508 551 q 368 607 422 607 q 271 579 314 607 q 208 504 228 551 q 187 390 191 463 m 468 836 l 468 960 l 568 960 l 568 836 l 468 836 z "},"ì":{"ha":351,"x_min":-16,"x_max":227,"o":"m -16 1038 l 104 1038 l 227 825 l 135 825 l -16 1038 m 125 0 l 125 684 l 225 684 l 225 0 l 125 0 z "},"í":{"ha":351,"x_min":125,"x_max":367,"o":"m 125 0 l 125 684 l 225 684 l 225 0 l 125 0 m 125 825 l 248 1038 l 367 1038 l 216 825 l 125 825 z "},"î":{"ha":351,"x_min":-41,"x_max":400,"o":"m -41 825 l 132 1038 l 227 1038 l 400 825 l 304 825 l 179 970 l 54 825 l -41 825 m 125 0 l 125 684 l 225 684 l 225 0 l 125 0 z "},"ï":{"ha":351,"x_min":-21,"x_max":374,"o":"m -21 836 l -21 960 l 79 960 l 79 836 l -21 836 m 125 0 l 125 684 l 225 684 l 225 0 l 125 0 m 273 836 l 273 960 l 374 960 l 374 836 l 273 836 z "},"ð":{"ha":736,"x_min":92,"x_max":646,"o":"m 174 68 q 92 339 92 150 q 174 610 92 528 q 343 682 237 675 q 447 668 411 685 l 367 806 l 205 806 l 205 878 l 328 878 l 262 991 l 367 991 l 432 878 l 546 878 l 546 806 l 471 806 l 558 652 q 629 495 612 557 q 646 339 646 432 q 562 68 646 152 q 368 -8 488 -9 q 174 68 248 -8 m 192 339 q 245 131 192 185 q 368 81 296 81 q 492 131 442 81 q 546 339 546 185 q 492 549 546 494 q 368 599 441 599 q 245 549 296 599 q 192 339 191 494 z "},"ñ":{"ha":780,"x_min":125,"x_max":663,"o":"m 125 0 l 125 684 l 225 684 l 225 608 q 416 692 297 692 q 591 628 528 692 q 663 437 662 559 l 663 0 l 562 0 l 562 421 q 518 556 562 510 q 394 603 473 603 q 270 556 315 603 q 225 421 225 509 l 225 0 l 125 0 m 172 909 q 304 981 243 980 q 403 947 351 981 q 481 920 452 920 q 562 964 518 920 l 614 914 q 482 843 545 844 q 383 876 441 843 q 306 904 334 904 q 224 860 269 904 l 172 909 z "},"ò":{"ha":736,"x_min":89,"x_max":647,"o":"m 172 69 q 89 341 89 154 q 172 614 89 529 q 368 692 250 692 q 564 614 486 692 q 647 341 647 529 q 564 69 647 154 q 368 -8 486 -9 q 172 69 250 -8 m 180 1038 l 300 1038 l 422 825 l 330 825 l 180 1038 m 244 553 q 189 341 189 497 q 244 131 189 186 q 368 81 294 81 q 493 131 444 81 q 547 341 547 184 q 493 553 547 498 q 368 603 443 603 q 244 553 294 603 z "},"ó":{"ha":736,"x_min":89,"x_max":647,"o":"m 172 69 q 89 341 89 154 q 172 614 89 529 q 368 692 250 692 q 564 614 486 692 q 647 341 647 529 q 564 69 647 154 q 368 -8 486 -9 q 172 69 250 -8 m 244 553 q 189 341 189 497 q 244 131 189 186 q 368 81 294 81 q 493 131 444 81 q 547 341 547 184 q 493 553 547 498 q 368 603 443 603 q 244 553 294 603 m 300 825 l 422 1038 l 542 1038 l 392 825 l 300 825 z "},"ô":{"ha":736,"x_min":89,"x_max":647,"o":"m 172 69 q 89 341 89 154 q 172 614 89 529 q 368 692 250 692 q 564 614 486 692 q 647 341 647 529 q 564 69 647 154 q 368 -8 486 -9 q 172 69 250 -8 m 147 825 l 321 1038 l 415 1038 l 589 825 l 493 825 l 368 970 l 243 825 l 147 825 m 244 553 q 189 341 189 497 q 244 131 189 186 q 368 81 294 81 q 493 131 444 81 q 547 341 547 184 q 493 553 547 498 q 368 603 443 603 q 244 553 294 603 z "},"õ":{"ha":736,"x_min":89,"x_max":647,"o":"m 172 69 q 89 341 89 154 q 172 614 89 529 q 368 692 250 692 q 564 614 486 692 q 647 341 647 529 q 564 69 647 154 q 368 -8 486 -9 q 172 69 250 -8 m 144 909 q 277 981 215 980 q 375 947 323 981 q 453 920 424 920 q 534 964 490 920 l 586 914 q 454 843 517 844 q 355 876 413 843 q 278 904 307 904 q 196 860 241 904 l 144 909 m 244 553 q 189 341 189 497 q 244 131 189 186 q 368 81 294 81 q 493 131 444 81 q 547 341 547 184 q 493 553 547 498 q 368 603 443 603 q 244 553 294 603 z "},"ö":{"ha":736,"x_min":89,"x_max":647,"o":"m 172 69 q 89 341 89 154 q 172 614 89 529 q 368 692 250 692 q 564 614 486 692 q 647 341 647 529 q 564 69 647 154 q 368 -8 486 -9 q 172 69 250 -8 m 171 836 l 171 960 l 271 960 l 271 836 l 171 836 m 244 553 q 189 341 189 497 q 244 131 189 186 q 368 81 294 81 q 493 131 444 81 q 547 341 547 184 q 493 553 547 498 q 368 603 443 603 q 244 553 294 603 m 465 836 l 465 960 l 566 960 l 566 836 l 465 836 z "},"÷":{"ha":725,"x_min":71,"x_max":654,"o":"m 71 328 l 71 421 l 654 421 l 654 328 l 71 328 m 302 68 l 302 187 l 422 187 l 422 68 l 302 68 m 302 561 l 302 681 l 422 681 l 422 561 l 302 561 z "},"ø":{"ha":736,"x_min":89,"x_max":647,"o":"m 89 342 q 172 614 89 529 q 368 692 250 692 q 514 654 450 692 l 568 745 l 646 745 l 567 611 q 647 342 647 528 q 564 69 647 155 q 368 -8 486 -9 q 222 29 286 -8 l 170 -61 l 90 -61 l 170 72 q 89 342 89 155 m 189 342 q 224 157 189 214 l 468 574 q 368 603 427 603 q 244 553 294 603 q 189 342 189 497 m 268 111 q 368 81 311 81 q 493 131 444 81 q 547 342 547 185 q 514 526 547 473 l 268 111 z "},"ù":{"ha":780,"x_min":118,"x_max":656,"o":"m 118 248 l 118 684 l 218 684 l 218 262 q 262 127 218 174 q 385 81 306 81 q 510 128 464 81 q 555 262 555 175 l 555 684 l 656 684 l 656 0 l 557 0 l 557 77 q 364 -8 483 -8 q 187 56 252 -8 q 118 248 118 123 m 212 1038 l 332 1038 l 454 825 l 363 825 l 212 1038 z "},"ú":{"ha":780,"x_min":118,"x_max":656,"o":"m 118 248 l 118 684 l 218 684 l 218 262 q 262 127 218 174 q 385 81 306 81 q 510 128 464 81 q 555 262 555 175 l 555 684 l 656 684 l 656 0 l 557 0 l 557 77 q 364 -8 483 -8 q 187 56 252 -8 q 118 248 118 123 m 318 825 l 440 1038 l 559 1038 l 410 825 l 318 825 z "},"û":{"ha":780,"x_min":118,"x_max":656,"o":"m 118 248 l 118 684 l 218 684 l 218 262 q 262 127 218 174 q 385 81 306 81 q 510 128 464 81 q 555 262 555 175 l 555 684 l 656 684 l 656 0 l 557 0 l 557 77 q 364 -8 483 -8 q 187 56 252 -8 q 118 248 118 123 m 165 825 l 339 1038 l 433 1038 l 607 825 l 511 825 l 386 970 l 261 825 l 165 825 z "},"ü":{"ha":780,"x_min":118,"x_max":656,"o":"m 118 248 l 118 684 l 218 684 l 218 262 q 262 127 218 174 q 385 81 306 81 q 510 128 464 81 q 555 262 555 175 l 555 684 l 656 684 l 656 0 l 557 0 l 557 77 q 364 -8 483 -8 q 187 56 252 -8 q 118 248 118 123 m 187 836 l 187 960 l 288 960 l 288 836 l 187 836 m 482 836 l 482 960 l 582 960 l 582 836 l 482 836 z "},"ý":{"ha":618,"x_min":16,"x_max":606,"o":"m 16 684 l 123 684 l 311 135 l 497 684 l 606 684 l 294 -165 q 245 -245 275 -220 q 113 -293 197 -293 l 69 -293 l 69 -204 l 100 -204 q 173 -186 150 -204 q 212 -119 196 -168 l 261 14 l 16 684 m 243 825 l 366 1038 l 485 1038 l 335 825 l 243 825 z "},"þ":{"ha":758,"x_min":125,"x_max":668,"o":"m 125 -306 l 125 989 l 225 989 l 225 604 q 418 692 293 692 q 585 632 525 692 q 668 342 668 549 q 585 52 668 135 q 418 -8 525 -8 q 225 81 294 -8 l 225 -306 l 125 -306 m 231 440 q 228 420 231 440 q 225 342 225 399 q 231 243 225 285 q 255 162 237 201 q 308 101 272 122 q 397 81 345 81 q 486 101 450 81 q 539 162 522 122 q 562 243 555 201 q 568 342 568 285 q 562 440 568 399 q 539 522 555 482 q 486 582 522 561 q 397 603 450 603 q 308 582 345 603 q 255 522 272 561 q 231 440 237 482 z "},"ÿ":{"ha":618,"x_min":16,"x_max":606,"o":"m 16 684 l 123 684 l 311 135 l 497 684 l 606 684 l 294 -165 q 245 -245 275 -220 q 113 -293 197 -293 l 69 -293 l 69 -204 l 100 -204 q 173 -186 150 -204 q 212 -119 196 -168 l 261 14 l 16 684 m 114 836 l 114 960 l 214 960 l 214 836 l 114 836 m 408 836 l 408 960 l 509 960 l 509 836 l 408 836 z "},"Œ":{"ha":1373,"x_min":106,"x_max":1296,"o":"m 120 236 q 113 275 120 236 q 106 494 106 314 q 120 753 106 675 q 199 895 135 831 q 450 997 302 998 q 690 886 600 997 l 690 989 l 1293 989 l 1293 896 l 798 896 l 798 543 l 1219 543 l 1219 454 l 796 454 l 796 93 l 1296 93 l 1296 0 l 690 0 l 690 103 q 450 -8 600 -8 q 199 94 302 -8 q 120 236 135 158 m 223 722 q 217 689 223 722 q 211 494 211 657 q 223 267 211 332 q 281 157 236 203 q 451 86 349 86 q 623 157 554 86 q 679 267 667 203 q 690 494 690 330 q 679 722 690 659 q 623 832 667 786 q 452 903 555 903 q 281 832 349 903 q 223 722 236 786 z "},"œ":{"ha":1196,"x_min":89,"x_max":1108,"o":"m 172 69 q 89 341 89 154 q 172 614 89 529 q 368 692 250 692 q 508 657 446 692 q 602 559 570 623 q 828 692 672 692 q 1034 603 960 692 q 1108 361 1108 514 l 1108 315 l 647 315 q 699 141 647 203 q 848 79 751 79 q 946 97 907 79 q 1028 157 986 115 l 1096 97 q 985 17 1040 41 q 846 -8 929 -8 q 600 123 673 -8 q 507 26 568 61 q 368 -8 446 -8 q 172 69 250 -8 m 244 553 q 189 341 189 497 q 244 131 189 186 q 368 81 294 81 q 493 131 444 81 q 547 341 547 184 q 493 553 547 498 q 368 603 443 603 q 244 553 294 603 m 647 390 l 1010 390 q 987 504 1007 458 q 925 579 968 551 q 828 607 882 607 q 731 579 774 607 q 668 504 688 551 q 647 390 651 463 z "},"Ÿ":{"ha":713,"x_min":11,"x_max":703,"o":"m 11 989 l 125 989 l 358 515 l 589 989 l 703 989 l 411 408 l 411 0 l 306 0 l 306 408 l 11 989 m 160 1096 l 160 1219 l 260 1219 l 260 1096 l 160 1096 m 454 1096 l 454 1219 l 554 1219 l 554 1096 l 454 1096 z "},"ˆ":{"ha":694,"x_min":126,"x_max":568,"o":"m 126 825 l 300 1038 l 395 1038 l 568 825 l 472 825 l 347 970 l 222 825 l 126 825 z "},"˜":{"ha":736,"x_min":144,"x_max":586,"o":"m 144 909 q 277 981 215 980 q 375 947 323 981 q 453 920 424 920 q 534 964 490 920 l 586 914 q 454 843 517 844 q 355 876 413 843 q 278 904 307 904 q 196 860 241 904 l 144 909 z "}," ":{"ha":684,"x_min":0,"x_max":0,"o":""}," ":{"ha":1368,"x_min":0,"x_max":0,"o":""}," ":{"ha":684,"x_min":0,"x_max":0,"o":""}," ":{"ha":1368,"x_min":0,"x_max":0,"o":""}," ":{"ha":456,"x_min":0,"x_max":0,"o":""}," ":{"ha":342,"x_min":0,"x_max":0,"o":""}," ":{"ha":228,"x_min":0,"x_max":0,"o":""}," ":{"ha":228,"x_min":0,"x_max":0,"o":""}," ":{"ha":171,"x_min":0,"x_max":0,"o":""}," ":{"ha":273,"x_min":0,"x_max":0,"o":""}," ":{"ha":76,"x_min":0,"x_max":0,"o":""},"‐":{"ha":591,"x_min":106,"x_max":486,"o":"m 106 328 l 106 421 l 486 421 l 486 328 l 106 328 z "},"‑":{"ha":591,"x_min":106,"x_max":486,"o":"m 106 328 l 106 421 l 486 421 l 486 328 l 106 328 z "},"‒":{"ha":591,"x_min":106,"x_max":486,"o":"m 106 328 l 106 421 l 486 421 l 486 328 l 106 328 z "},"–":{"ha":725,"x_min":72,"x_max":653,"o":"m 72 328 l 72 421 l 653 421 l 653 328 l 72 328 z "},"—":{"ha":1269,"x_min":106,"x_max":1164,"o":"m 106 328 l 106 422 l 1164 422 l 1164 328 l 106 328 z "},"‘":{"ha":365,"x_min":122,"x_max":243,"o":"m 122 872 l 122 989 l 243 1099 l 243 872 l 122 872 z "},"’":{"ha":365,"x_min":122,"x_max":243,"o":"m 122 762 l 122 989 l 243 989 l 243 872 l 122 762 z "},"‚":{"ha":365,"x_min":122,"x_max":243,"o":"m 122 -110 l 122 117 l 243 117 l 243 0 l 122 -110 z "},"“":{"ha":602,"x_min":122,"x_max":481,"o":"m 122 872 l 122 989 l 243 1099 l 243 872 l 122 872 m 358 872 l 358 989 l 481 1099 l 481 872 l 358 872 z "},"”":{"ha":602,"x_min":122,"x_max":481,"o":"m 122 762 l 122 989 l 243 989 l 243 872 l 122 762 m 358 762 l 358 989 l 481 989 l 481 872 l 358 762 z "},"„":{"ha":602,"x_min":122,"x_max":481,"o":"m 122 -110 l 122 117 l 243 117 l 243 0 l 122 -110 m 358 -110 l 358 117 l 481 117 l 481 0 l 358 -110 z "},"•":{"ha":739,"x_min":143,"x_max":596,"o":"m 209 303 q 176 337 209 303 q 143 464 143 370 q 209 624 143 558 q 370 690 275 690 q 530 624 464 690 q 596 464 596 558 q 530 303 596 370 q 370 237 464 237 q 209 303 275 237 z "},"…":{"ha":1051,"x_min":122,"x_max":929,"o":"m 122 0 l 122 127 l 250 127 l 250 0 l 122 0 m 461 0 l 461 127 l 589 127 l 589 0 l 461 0 m 802 0 l 802 127 l 929 127 l 929 0 l 802 0 z "}," ":{"ha":273,"x_min":0,"x_max":0,"o":""},"‹":{"ha":455,"x_min":56,"x_max":347,"o":"m 56 372 l 347 664 l 347 539 l 180 372 l 347 204 l 347 81 l 56 372 z "},"›":{"ha":455,"x_min":109,"x_max":400,"o":"m 109 81 l 109 204 l 277 372 l 109 539 l 109 664 l 400 372 l 109 81 z "}," ":{"ha":342,"x_min":0,"x_max":0,"o":""},"€":{"ha":941,"x_min":65,"x_max":844,"o":"m 65 361 l 65 431 l 157 431 l 157 567 l 65 567 l 65 635 l 158 635 q 182 787 162 728 q 250 895 201 846 q 501 997 353 998 q 728 919 636 997 q 844 703 819 842 l 737 703 q 655 848 718 794 q 501 903 593 903 q 330 833 399 903 q 283 756 297 799 q 265 635 269 713 l 570 635 l 570 567 l 262 567 l 262 431 l 570 431 l 570 361 l 265 361 q 282 235 268 279 q 330 155 296 191 q 501 86 399 86 q 657 140 593 86 q 741 286 721 195 l 844 286 q 727 70 819 147 q 501 -8 635 -8 q 250 94 353 -8 q 181 204 200 144 q 158 361 163 264 l 65 361 z "},"™":{"ha":1165,"x_min":50,"x_max":1084,"o":"m 50 916 l 50 989 l 460 989 l 460 916 l 294 916 l 294 396 l 214 396 l 214 916 l 50 916 m 564 396 l 564 989 l 644 989 l 825 629 l 1006 989 l 1084 989 l 1084 396 l 1006 396 l 1006 823 l 864 543 l 786 543 l 644 823 l 644 396 l 564 396 z "},"ﬁ":{"ha":780,"x_min":58,"x_max":661,"o":"m 58 603 l 58 679 l 146 679 l 146 808 q 191 940 146 889 q 319 991 236 991 l 392 991 l 392 905 l 338 905 q 245 806 246 905 l 245 679 l 392 679 l 392 603 l 245 603 l 245 0 l 146 0 l 146 603 l 58 603 m 547 888 l 547 990 l 661 990 l 661 888 l 547 888 m 554 0 l 554 679 l 654 679 l 654 0 l 554 0 z "},"ﬂ":{"ha":836,"x_min":58,"x_max":796,"o":"m 58 603 l 58 679 l 146 679 l 146 808 q 191 940 146 889 q 319 991 236 991 l 392 991 l 392 905 l 338 905 q 245 806 246 905 l 245 679 l 392 679 l 392 603 l 245 603 l 245 0 l 146 0 l 146 603 l 58 603 m 549 182 l 549 989 l 648 989 l 648 186 q 669 110 648 134 q 741 86 690 86 l 796 86 l 796 0 l 724 0 q 593 50 637 0 q 549 182 549 100 z "}}}
